<svg id="icon_suggestions" xmlns="http://www.w3.org/2000/svg" viewBox="0 0 60 60"><title>icon_suggestions</title><rect width="60" height="60" fill="#fff" opacity="0"/><path d="M30.0055.9415A29.064,29.064,0,1,0,59.07,30.0055,29.064,29.064,0,0,0,30.0055.9415Z" fill="none" stroke="#0068a6" stroke-miterlimit="10"/><path d="M30.42,10.5712c7.29,0,12.1085,4.0534,12.1085,9.9423,0,3.824-1.861,6.5008-5.4555,8.6167-3.3906,1.963-4.3338,3.2121-4.3338,5.66v1.3511h-6.755l-.051-1.4021c-.3314-4.0789,1.0708-6.3733,4.5888-8.4382,3.2879-1.963,4.2821-3.1867,4.2821-5.5575S32.8664,16.69,29.9609,16.69a4.6692,4.6692,0,0,0-5.0222,4.6142H18.03C18.1576,14.9561,22.5934,10.5712,30.42,10.5712ZM24.99,44.12c0-2.7022,1.7845-4.3593,4.64-4.3593S34.243,41.4179,34.243,44.12c0,2.6768-1.759,4.3353-4.6136,4.3353S24.99,46.7969,24.99,44.12Z" fill="none" stroke="#0068a6"/></svg>