<svg id="icon_js" xmlns="http://www.w3.org/2000/svg" viewBox="0 0 50 50"><title>icon_js</title><rect width="50" height="50" fill="#fff" opacity="0"/><path d="M39.4424,48.671H10.5576A5.6811,5.6811,0,0,1,4.8765,42.99V7.01A5.6811,5.6811,0,0,1,10.5576,1.329H39.4424A5.6811,5.6811,0,0,1,45.1235,7.01h0V42.99a5.6811,5.6811,0,0,1-5.6811,5.6811ZM10.5576,5.432A1.5718,1.5718,0,0,0,8.9921,6.9974v35.98a1.5717,1.5717,0,0,0,1.5655,1.5654H39.4424a1.5717,1.5717,0,0,0,1.5655-1.5654V6.9974A1.5718,1.5718,0,0,0,39.4424,5.432Z" fill="none" stroke="#0068a6" stroke-miterlimit="10"/><path d="M19.59,17.1728h2.96v9.9418a4.9221,4.9221,0,0,1-.3661,1.9316,4.2229,4.2229,0,0,1-1.01,1.4581,4.3683,4.3683,0,0,1-1.5276.909,5.5549,5.5549,0,0,1-1.8937.3156,6.7282,6.7282,0,0,1-1.9568-.2588,4.1036,4.1036,0,0,1-1.5275-.8206,3.7061,3.7061,0,0,1-1.0037-1.3761,4.9879,4.9879,0,0,1-.36-1.982h2.9794a3.3208,3.3208,0,0,0,.1262.9783,1.5779,1.5779,0,0,0,.3725.6313,1.3132,1.3132,0,0,0,.5807.3408,2.5915,2.5915,0,0,0,.7638.1073,1.6977,1.6977,0,0,0,1.3508-.5807,2.4743,2.4743,0,0,0,.505-1.66Z" fill="#0068a6"/><path d="M32.5305,27.7648a2.0747,2.0747,0,0,0-.1073-.6754A1.363,1.363,0,0,0,32,26.5339a3.7035,3.7035,0,0,0-.8585-.505,14.1079,14.1079,0,0,0-1.4139-.5239,16.4119,16.4119,0,0,1-1.8558-.707,6.902,6.902,0,0,1-1.5339-.9026,4.1033,4.1033,0,0,1-1.0352-1.2625,3.3822,3.3822,0,0,1-.3787-1.6349,3.477,3.477,0,0,1,.3913-1.6412,3.6876,3.6876,0,0,1,1.092-1.2624,5.4722,5.4722,0,0,1,1.6791-.8143,7.3573,7.3573,0,0,1,2.1335-.3282,6.7274,6.7274,0,0,1,2.1715.3282,5.05,5.05,0,0,1,1.6664.9342,4.1485,4.1485,0,0,1,1.0415,1.42,4.2606,4.2606,0,0,1,.3724,1.78H32.5747a2.4174,2.4174,0,0,0-.1452-.84,1.66,1.66,0,0,0-.4418-.6312,1.9314,1.9314,0,0,0-.77-.4671,3.0609,3.0609,0,0,0-1.0416-.1578,3.4832,3.4832,0,0,0-1.0162.1325,2.0073,2.0073,0,0,0-.707.3535,1.4706,1.4706,0,0,0-.4229.53,1.5539,1.5539,0,0,0-.1452.6313,1.4014,1.4014,0,0,0,.7259,1.193,8.3192,8.3192,0,0,0,2.1272.89,14.09,14.09,0,0,1,2.0641.8459,6.095,6.095,0,0,1,1.49,1.01,3.7877,3.7877,0,0,1,.9027,1.2625,3.9385,3.9385,0,0,1,.303,1.5843,3.7191,3.7191,0,0,1-.3661,1.6854A3.5163,3.5163,0,0,1,34.077,30.7a4.8288,4.8288,0,0,1-1.6412.77,7.7984,7.7984,0,0,1-2.1461.2714,8.3051,8.3051,0,0,1-1.42-.12,6.9385,6.9385,0,0,1-1.3571-.3788,5.6736,5.6736,0,0,1-1.193-.6312,4.132,4.132,0,0,1-.9658-.909,4.0442,4.0442,0,0,1-.6312-1.1867,4.3536,4.3536,0,0,1-.24-1.4644h2.9668a2.65,2.65,0,0,0,.2083,1.1046,1.944,1.944,0,0,0,.5744.7323,2.4856,2.4856,0,0,0,.8963.41,5.0485,5.0485,0,0,0,1.1615.1263,3.5966,3.5966,0,0,0,1.0226-.1515,2.0141,2.0141,0,0,0,.6754-.3282,1.3964,1.3964,0,0,0,.41-.5176A1.5986,1.5986,0,0,0,32.5305,27.7648Z" fill="#0068a6"/></svg>