<svg id="icon_routing_blue" xmlns="http://www.w3.org/2000/svg" viewBox="0 0 42 42"><title>icon_routing_blue</title><rect width="42" height="42" style="fill:#fff;opacity:0"/><path d="M14,36.51a40,40,0,0,0-3.43-11.65,37.28,37.28,0,0,0-7-10.52L4.26,10h4a45.73,45.73,0,0,1,8.94,13.62Q20.3,16.39,24.35,13l.06,0-.06,0a15.35,15.35,0,0,0-3.18-1.35,2.71,2.71,0,0,1-1-.51,2,2,0,0,1-.64-1.42,1.86,1.86,0,0,1,.58-1.41A2.18,2.18,0,0,1,21,7.67L37.85,4.41,35.16,20.84a1.79,1.79,0,0,1-.53.92,2.06,2.06,0,0,1-1.44.62,2,2,0,0,1-1.48-.56,2.51,2.51,0,0,1-.57-1,.08.08,0,0,0,0-.06,13.85,13.85,0,0,0-1.66-3.22l0,0Q24.7,22.5,22.88,30.89a28.77,28.77,0,0,0-1,7.72H14.24m2.38-13.48a48.82,48.82,0,0,0-3-5.87,47.59,47.59,0,0,0-5.89-8.08H5.22L4.77,14A40,40,0,0,1,14.55,32.8,43,43,0,0,1,16.62,25.13Z" transform="translate(0 0)" style="fill:#0068a6"/></svg>