<svg id="icon_brandlist" xmlns="http://www.w3.org/2000/svg" viewBox="0 0 60 60"><title>icon_brandlist</title><rect width="60" height="60" fill="#fff" opacity="0"/><path d="M55.1443,1.2692H30.3073a4.9687,4.9687,0,0,0-3.0611,1.2681L2.3174,27.4624a3.5935,3.5935,0,0,0,0,5.0795l25.1436,25.14a3.593,3.593,0,0,0,5.08,0L57.4656,32.7568a4.97,4.97,0,0,0,1.2683-3.0646V4.8621a3.5891,3.5891,0,0,0-3.59-3.5929M40.7761,23.6229a4.3961,4.3961,0,1,1,4.3961-4.3961,4.3971,4.3971,0,0,1-4.3961,4.3961" fill="none" stroke="#0068a6" stroke-miterlimit="10" fill-rule="evenodd"/><path d="M55.1443,1.2692H30.3073a4.9687,4.9687,0,0,0-3.0611,1.2681L2.3174,27.4624a3.5935,3.5935,0,0,0,0,5.0795l25.1436,25.14a3.593,3.593,0,0,0,5.08,0L57.4656,32.7568a4.97,4.97,0,0,0,1.2683-3.0646V4.8621a3.5891,3.5891,0,0,0-3.59-3.5929M40.7761,23.6229a4.3961,4.3961,0,1,1,4.3961-4.3961,4.3971,4.3971,0,0,1-4.3961,4.3961" fill="none" stroke="#0068a6" stroke-miterlimit="10" fill-rule="evenodd"/></svg>