<svg id="icon_collapse" xmlns="http://www.w3.org/2000/svg" viewBox="0 0 14 14"><title>icon_collapse</title><path d="M6.74,1.27a.92.92,0,0,1,.65.27.91.91,0,0,1,0,1.29L3.17,7l4.22,4.17a.91.91,0,0,1,0,1.29.94.94,0,0,1-1.3,0L1.22,7.64a.89.89,0,0,1,0-1.28L6.09,1.54A.91.91,0,0,1,6.74,1.27Z" transform="translate(0)" style="fill:#666"/><path d="M12.13,1.27a.92.92,0,0,1,.65,1.56L8.56,7l4.22,4.17a.91.91,0,0,1,0,1.29.94.94,0,0,1-1.3,0L6.61,7.64a.89.89,0,0,1,0-1.28l4.87-4.82A.92.92,0,0,1,12.13,1.27Z" transform="translate(0)" style="fill:#666"/><rect width="14" height="14" style="fill:#fff;opacity:0"/></svg>