<svg id="icon_geo_blue" xmlns="http://www.w3.org/2000/svg" viewBox="0 0 42 42"><title>icon_geo_blue</title><rect width="42" height="42" style="fill:#fff;opacity:0"/><path d="M21,14.76A4.2,4.2,0,1,0,25.2,19,4.2,4.2,0,0,0,21,14.76Z" transform="translate(0 0)" style="fill:#0068a6"/><path d="M21,1A20,20,0,1,0,41,21,20,20,0,0,0,21,1Zm8.13,21.83C27.9,25.73,21,34,21,34s-6.9-8.31-8.13-11.21a9.19,9.19,0,0,1-.58-1.62v0l-.09-.41v0c0-.14,0-.28-.07-.42v0A10,10,0,0,1,12,19a9,9,0,0,1,8.54-9H21c.24,0,.48,0,.71,0a9,9,0,0,1,7.42,12.84Z" transform="translate(0 0)" style="fill:#0068a6"/></svg>