<?xml version="1.0" encoding="utf-8"?>
<!-- Generator: Adobe Illustrator 23.0.6, SVG Export Plug-In . SVG Version: 6.00 Build 0)  -->
<svg version="1.1" id="icon_restapi" xmlns="http://www.w3.org/2000/svg" xmlns:xlink="http://www.w3.org/1999/xlink" x="0px"
	 y="0px" viewBox="0 0 50 50" style="enable-background:new 0 0 50 50;" xml:space="preserve">
<style type="text/css">
	.st0{fill:#FFFFFF;fill-opacity:0;}
	.st1{fill:none;stroke:#0068A6;stroke-miterlimit:10;}
	.st2{fill:#0068A6;}
</style>
<title>icon_restapi</title>
<rect class="st0" width="50" height="50"/>
<g id="icon_rest">
	<path class="st1" d="M29.4,48.5h-8.7c-1.4,0-2.7-1-2.9-2.5l-0.7-4.7c-0.8-0.4-1.5-0.8-2.3-1.3l-4.5,1.8c-1.4,0.5-2.9-0.1-3.6-1.3
		L2.4,33C1.7,31.8,2,30.3,3,29.3l0.1-0.1l3.8-3c0-0.4,0-0.9,0-1.3c0-0.4,0-0.9,0-1.3l-3.8-3C2,19.9,1.7,18.3,2.4,17l4.4-7.6
		C7.5,8.2,9,7.7,10.3,8.2l4.5,1.8c0.7-0.5,1.5-0.9,2.2-1.3L17.7,4c0.2-1.4,1.5-2.5,2.9-2.5h8.7c1.5,0,2.7,1.1,2.9,2.5l0.7,4.7
		c0.8,0.4,1.5,0.8,2.2,1.3l4.5-1.8c1.4-0.5,2.9,0.1,3.6,1.3l4.3,7.5c0.7,1.2,0.4,2.8-0.6,3.7l-0.1,0.1l-3.8,3c0,0.4,0.1,0.8,0.1,1.3
		c0,0.4,0,0.9-0.1,1.3l3.9,3c1.1,0.9,1.3,2.4,0.7,3.7l-4.4,7.6c-0.7,1.2-2.2,1.7-3.5,1.2L35.2,40c-0.7,0.5-1.5,0.9-2.2,1.3L32.2,46
		C32,47.5,30.8,48.5,29.4,48.5z M21.3,44.8h7.3l0.9-6.1l0.9-0.4c1.2-0.5,2.2-1.1,3.2-1.9l0.8-0.7l5.8,2.3l3.7-6.4L39.1,28l0.1-1.1
		c0.1-0.6,0.1-1.3,0.2-1.9c0-0.6,0-1.2-0.1-1.8l-0.2-1.1l4.9-3.9l-3.7-6.4l-5.7,2.3l-0.8-0.6c-1-0.8-2.1-1.4-3.2-1.9l-1-0.4
		l-0.9-6.1h-7.3l-0.9,6.1l-0.9,0.4c-1.2,0.5-2.3,1.1-3.3,1.9l-0.8,0.6l-5.7-2.3l-3.7,6.4l4.9,3.8l-0.1,1c-0.2,1.3-0.2,2.5,0,3.8
		l0.1,1l-4.9,3.8l3.7,6.4l5.7-2.3l0.8,0.7c1,0.8,2.1,1.4,3.2,1.9l1,0.4L21.3,44.8z"/>
	<path class="st2" d="M15.8,22h-1.2v2.7h-1.5v-7.4h2.7c0.4,0,0.8,0,1.1,0.1c0.3,0.1,0.6,0.2,0.9,0.4c0.2,0.2,0.4,0.4,0.5,0.7
		c0.1,0.3,0.2,0.6,0.2,1c0,0.3,0,0.5-0.1,0.7c-0.1,0.2-0.1,0.4-0.3,0.6c-0.1,0.2-0.3,0.3-0.4,0.4c-0.2,0.1-0.4,0.2-0.5,0.3l1.6,3
		v0.1h-1.6L15.8,22z M14.6,20.8h1.2c0.2,0,0.4,0,0.5-0.1c0.1,0,0.3-0.1,0.4-0.2c0.1-0.1,0.2-0.2,0.2-0.3C17,20,17,19.9,17,19.7
		c0-0.3-0.1-0.6-0.3-0.8c-0.3-0.2-0.6-0.3-0.9-0.3h-1.2L14.6,20.8z"/>
	<path class="st2" d="M24.2,21.6h-2.9v2h3.4v1.2h-5v-7.4h4.9v1.2h-3.4v1.8h2.9V21.6z"/>
	<path class="st2" d="M29.4,22.8c0-0.1,0-0.2-0.1-0.3c0-0.1-0.1-0.2-0.2-0.3c-0.1-0.1-0.3-0.2-0.4-0.3c-0.2-0.1-0.5-0.2-0.7-0.3
		c-0.3-0.1-0.6-0.2-1-0.4c-0.3-0.1-0.5-0.3-0.8-0.5c-0.2-0.2-0.4-0.4-0.5-0.6c-0.1-0.3-0.2-0.6-0.2-0.8c0-0.3,0.1-0.6,0.2-0.8
		c0.1-0.3,0.3-0.5,0.6-0.7c0.3-0.2,0.6-0.4,0.9-0.4c0.4-0.1,0.7-0.2,1.1-0.1c0.4,0,0.8,0.1,1.1,0.2c0.3,0.1,0.6,0.3,0.9,0.5
		c0.2,0.2,0.4,0.5,0.5,0.7c0.1,0.3,0.2,0.6,0.2,0.9h-1.5c0-0.1,0-0.3-0.1-0.4c0-0.1-0.1-0.2-0.2-0.3c-0.1-0.1-0.2-0.2-0.4-0.2
		c-0.2-0.1-0.4-0.1-0.5-0.1c-0.2,0-0.4,0-0.5,0.1c-0.1,0-0.3,0.1-0.4,0.2c-0.1,0.1-0.2,0.2-0.2,0.3c0,0.1-0.1,0.2-0.1,0.3
		c0,0.3,0.2,0.5,0.4,0.6c0.3,0.2,0.7,0.4,1.1,0.5c0.4,0.1,0.7,0.3,1.1,0.4c0.3,0.1,0.5,0.3,0.7,0.5c0.2,0.2,0.4,0.4,0.5,0.6
		c0.1,0.3,0.2,0.5,0.2,0.8c0,0.3,0,0.6-0.2,0.9c-0.1,0.3-0.3,0.5-0.5,0.6c-0.3,0.2-0.5,0.3-0.8,0.4c-0.4,0.1-0.7,0.1-1.1,0.1
		c-0.2,0-0.5,0-0.7-0.1c-0.2,0-0.5-0.1-0.7-0.2c-0.2-0.1-0.4-0.2-0.6-0.3c-0.2-0.1-0.4-0.3-0.5-0.5c-0.1-0.2-0.3-0.4-0.3-0.6
		c-0.1-0.2-0.1-0.5-0.1-0.7h1.5c0,0.2,0,0.4,0.1,0.6c0.1,0.2,0.2,0.3,0.3,0.4c0.1,0.1,0.3,0.2,0.5,0.2c0.2,0,0.4,0.1,0.6,0.1
		c0.2,0,0.3,0,0.5-0.1c0.1,0,0.3-0.1,0.4-0.2C29.3,23.3,29.4,23.1,29.4,22.8L29.4,22.8z"/>
	<path class="st2" d="M37.5,18.6h-2.2v6.1h-1.5v-6.1h-2.2v-1.2h5.9L37.5,18.6z"/>
	<path class="st2" d="M21.4,32.1h-2.7l-0.5,1.5h-1.6l2.7-7.4h1.4l2.8,7.4h-1.6L21.4,32.1z M19.2,30.9H21l-1-2.8L19.2,30.9z"/>
	<path class="st2" d="M25.7,31v2.6h-1.5v-7.4h2.9c0.4,0,0.8,0.1,1.2,0.2c0.3,0.1,0.6,0.3,0.9,0.5c0.2,0.2,0.4,0.5,0.5,0.7
		c0.1,0.3,0.2,0.6,0.2,1c0,0.3-0.1,0.7-0.2,1c-0.1,0.3-0.3,0.5-0.5,0.7c-0.3,0.2-0.6,0.4-0.9,0.5C27.9,31,27.5,31,27.1,31L25.7,31z
		 M25.7,29.8h1.4c0.2,0,0.4,0,0.6-0.1c0.1,0,0.3-0.1,0.4-0.2c0.1-0.1,0.2-0.2,0.2-0.3c0.1-0.1,0.1-0.3,0.1-0.4c0-0.2,0-0.3-0.1-0.5
		c0-0.1-0.1-0.3-0.2-0.4c-0.1-0.1-0.2-0.2-0.4-0.3c-0.2-0.1-0.4-0.1-0.6-0.1h-1.4V29.8z"/>
	<path class="st2" d="M32.5,33.7H31v-7.4h1.5V33.7z"/>
</g>
</svg>
