<svg id="icon_doc" xmlns="http://www.w3.org/2000/svg" viewBox="0 0 66 77"><title>icon_doc</title><rect width="66" height="77" style="fill:#fff;opacity:0"/><path d="M55.88,76H10.12a9,9,0,0,1-9-9V10a9,9,0,0,1,9-9H55.88a9,9,0,0,1,9,9V67A9,9,0,0,1,55.88,76ZM10.12,7.5A2.49,2.49,0,0,0,7.64,10V67a2.49,2.49,0,0,0,2.48,2.48H55.88A2.49,2.49,0,0,0,58.36,67V10A2.49,2.49,0,0,0,55.88,7.5Z" transform="translate(0 0)" style="fill:#fff"/><rect x="16.79" y="18.8" width="32.43" height="6.5" style="fill:#fff"/><rect x="16.79" y="32.67" width="32.43" height="6.5" style="fill:#fff"/><rect x="16.79" y="46" width="32.43" height="6.5" style="fill:#fff"/></svg>