<svg id="icon_map_blue" xmlns="http://www.w3.org/2000/svg" viewBox="0 0 42 42"><title>icon_map_blue</title><rect width="42" height="42" style="fill:#fff;opacity:0"/><polygon points="15.58 33.46 26.46 37.26 26.46 8.44 15.58 4.63 15.58 33.46" style="fill:#0068a6"/><path d="M12.88,4.92,2.65,8.36A.92.92,0,0,0,2,9.23V36.64a.9.9,0,0,0,.91.91l.29-.06,9.68-3.75Z" transform="translate(0 0)" style="fill:#0068a6"/><path d="M29.12,37.08l10.23-3.44a.92.92,0,0,0,.65-.87V5.36a.9.9,0,0,0-.91-.91l-.29.06L29.12,8.26Z" transform="translate(0 0)" style="fill:#0068a6"/></svg>