<svg id="icon_directions" xmlns="http://www.w3.org/2000/svg" viewBox="0 0 60 60"><title>icon_directions</title><rect width="60" height="60" fill="#fff" opacity="0"/><path d="M18.8885,54.84a66.2386,66.2386,0,0,0-5.68-19.292A61.735,61.735,0,0,0,1.6167,18.1267L2.7593,10.94H9.3832A75.7288,75.7288,0,0,1,24.1876,33.4941q5.1335-11.9727,11.84-17.5864h0c-1.6656-.941-5.5789-1.931-6.9219-3.08a3.3119,3.3119,0,0,1-1.06-2.3515,3.08,3.08,0,0,1,.96-2.3349,3.6109,3.6109,0,0,1,1.4738-1.06L58.3833,1.6829,53.9287,28.8905a2.9639,2.9639,0,0,1-.8776,1.5235,3.4118,3.4118,0,0,1-2.3846,1.0267,3.312,3.312,0,0,1-2.4508-.9273,7.5777,7.5777,0,0,1-.9439-1.7554,22.9323,22.9323,0,0,0-2.749-5.3322h0Q36.6073,31.6394,33.5935,45.533a47.6361,47.6361,0,0,0-1.656,12.7841H19.2859Zm-.392-2.9479C19.2447,47.5612,22.4683,38.1,24,33.9807" fill="none" stroke="#0068a6" stroke-miterlimit="10"/></svg>