<svg id="icon_ios" xmlns="http://www.w3.org/2000/svg" viewBox="0 0 50 50"><title>icon_ios</title><rect width="50" height="50" fill="#fff" opacity="0"/><g id="icon_ios-2" data-name="icon ios"><g id="_Group_2" data-name=" Group 2"><g id="_Group_3" data-name=" Group 3"><path id="_Path_" data-name=" Path " d="M37.904,26.6157a10.88,10.88,0,0,1,5.1676-9.1089,11.1108,11.1108,0,0,0-8.763-4.7379c-3.69-.3879-7.2536,2.2117-9.13,2.2117s-4.8112-2.17-7.9244-2.0964a11.6663,11.6663,0,0,0-9.8112,5.9852C3.25,26.2069,6.3948,37.0139,10.43,42.9782c2.0336,2.914,4.413,6.1635,7.5157,6.0482s4.1928-1.95,7.8615-1.95,4.7065,1.95,7.8721,1.8763,5.3249-2.9245,7.3374-5.86A23.8978,23.8978,0,0,0,44.35,36.3116,10.4818,10.4818,0,0,1,37.904,26.6157Z" fill="none" stroke="#0068a6" stroke-miterlimit="10"/><path id="_Path_2" data-name=" Path 2" d="M31.9082,8.87A10.7019,10.7019,0,0,0,34.361,1.2071a10.86,10.86,0,0,0-7.0439,3.6373,10.1777,10.1777,0,0,0-2.5052,7.3375A8.9623,8.9623,0,0,0,31.9082,8.87Z" fill="none" stroke="#0068a6" stroke-miterlimit="10"/></g></g></g></svg>