<svg id="icon_pos_blue" xmlns="http://www.w3.org/2000/svg" viewBox="0 0 42 42"><title>icon_pos_blue</title><rect width="42" height="42" style="fill:#fff;opacity:0"/><path d="M29.18,21a.91.91,0,0,1,.9-.9h6.6A15.72,15.72,0,0,0,21.9,5.32v6.6a.9.9,0,1,1-1.8,0V5.32A15.72,15.72,0,0,0,5.32,20.1h6.6a.9.9,0,0,1,0,1.8H5.32A15.72,15.72,0,0,0,20.1,36.68v-6.6a.9.9,0,0,1,1.8,0v6.6A15.72,15.72,0,0,0,36.68,21.9h-6.6A.91.91,0,0,1,29.18,21ZM21,22.17A1.17,1.17,0,1,1,22.17,21,1.17,1.17,0,0,1,21,22.17Z" transform="translate(0 0)" style="fill:#0068a6"/><path d="M21,1A20,20,0,1,0,41,21,20,20,0,0,0,21,1Zm0,38A18,18,0,1,1,39,21,18,18,0,0,1,21,39Z" transform="translate(0 0)" style="fill:#0068a6"/></svg>