<svg id="icon_androbo" xmlns="http://www.w3.org/2000/svg" viewBox="0 0 42 50"><title>icon_androbo</title><rect width="42" height="50" style="fill:#fff;opacity:0"/><path d="M41,19.63a2.93,2.93,0,1,0-5.85,0V31.82a2.93,2.93,0,1,0,5.85,0Zm-34.15,0a2.93,2.93,0,1,0-5.85,0V31.82a2.93,2.93,0,1,0,5.85,0ZM27.4,5.68,29.46,2a.4.4,0,0,0-.15-.56.47.47,0,0,0-.2-.06.4.4,0,0,0-.36.22l-2.1,3.77a14,14,0,0,0-11.3,0L13.27,1.55a.41.41,0,0,0-.56-.16.4.4,0,0,0-.16.56l2.07,3.73A11.9,11.9,0,0,0,7.94,16.17H34.06A11.92,11.92,0,0,0,27.4,5.68ZM15,11.39a1.09,1.09,0,1,1,1.09-1.09A1.09,1.09,0,0,1,15,11.39Zm12.06,0a1.09,1.09,0,1,1,1.09-1.09A1.09,1.09,0,0,1,27,11.39ZM7.94,17.2V36.13a3.15,3.15,0,0,0,3.16,3.15h2.1v6.46a2.93,2.93,0,1,0,5.85,0V39.28H23v6.46a2.93,2.93,0,1,0,5.85,0V39.28h2.1a3.15,3.15,0,0,0,3.16-3.15V17.2Z" style="fill:#fff"/></svg>