<svg id="icon_expand" xmlns="http://www.w3.org/2000/svg" viewBox="0 0 14 14"><title>icon_expand</title><path d="M7.26,12.73a.92.92,0,0,1-.65-.27.91.91,0,0,1,0-1.29L10.83,7,6.61,2.83a.91.91,0,0,1,0-1.29.94.94,0,0,1,1.3,0l4.87,4.82a.89.89,0,0,1,0,1.28L7.91,12.46A.91.91,0,0,1,7.26,12.73Z" transform="translate(0)" style="fill:#666"/><path d="M1.87,12.73a.92.92,0,0,1-.65-1.56L5.44,7,1.22,2.83a.91.91,0,0,1,0-1.29.94.94,0,0,1,1.3,0L7.39,6.36a.89.89,0,0,1,0,1.28L2.52,12.46A.92.92,0,0,1,1.87,12.73Z" transform="translate(0)" style="fill:#666"/><rect width="14" height="14" style="fill:#fff;opacity:0"/></svg>