<svg id="icon_android" xmlns="http://www.w3.org/2000/svg" viewBox="0 0 50 50"><title>icon_android</title><rect width="50" height="50" fill="#fff" opacity="0"/><path d="M45.48,19.41a3,3,0,1,0-5.99,0V31.8923a3,3,0,1,0,5.99.35,2.9683,2.9683,0,0,0,0-.35Zm-34.97,0a3,3,0,0,0-5.99-.35,2.9683,2.9683,0,0,0,0,.35V31.8923a3,3,0,1,0,5.99,0ZM31.5536,5.1247l2.11-3.7683a.41.41,0,0,0-.1358-.5632L33.51.7829a.4829.4829,0,0,0-.2048-.0614.4094.4094,0,0,0-.3686.2253l-2.1505,3.86a14.3355,14.3355,0,0,0-11.5712,0L17.0844.8956a.42.42,0,0,0-.57-.1657L16.511.7317a.41.41,0,0,0-.1758.552l.0119.0215,2.12,3.8195a12.1859,12.1859,0,0,0-6.84,10.7419h26.747A12.2061,12.2061,0,0,0,31.5536,5.1247ZM18.856,10.9718a1.1162,1.1162,0,1,1,1.1161-1.1162,1.1161,1.1161,0,0,1-1.1161,1.1162Zm12.3495,0a.7893.7893,0,1,1,.0017.0017c-.0211,0-.0421,0-.0632-.0017Zm-19.579,5.9495V36.3057a3.2256,3.2256,0,0,0,3.2256,3.2257h2.1606v6.6151a3,3,0,1,0,5.9905,0V39.5314H27.048v6.615a3,3,0,1,0,5.9905,0v-6.615h2.15a3.2257,3.2257,0,0,0,3.2358-3.2154V16.9213Z" fill="none" stroke="#0068a6" stroke-miterlimit="10" stroke-width="0.7"/></svg>