<svg id="icon_gitlab" xmlns="http://www.w3.org/2000/svg" viewBox="0 0 26 26"><title>icon_gitlab</title><rect width="26" height="26" fill="#fff" opacity="0"/><path d="M25.7333,14.4241,24.39,10.2954a.589.589,0,0,0-.0333-.1118l-2.695-8.2982a1.0761,1.0761,0,0,0-1.024-.7308,1.0534,1.0534,0,0,0-1.0112.7376L17.0565,9.8h-8.11L6.3732,1.8914a1.052,1.052,0,0,0-1.0067-.7368h-.006a1.0747,1.0747,0,0,0-1.02.7376L1.6429,10.201c0,.0068-.006.0136-.0083.02L.2667,14.4241A1.531,1.531,0,0,0,.8229,16.14l11.8185,8.59a.6044.6044,0,0,0,.7149-.0038h0L25.1771,16.14A1.531,1.531,0,0,0,25.7333,14.4241ZM8.0668,11.0134l3.2951,10.1384L3.4537,11.0134Zm6.5751,10.1407,3.159-9.72.1368-.4209h4.6169L15.4,20.1792Zm6.006-18.4835L22.9635,9.8H18.3292Zm-3.9836,8.3383L14.369,18.0721,13,22.2779,9.34,11.0089ZM5.3552,2.6706,7.6753,9.8H3.0441ZM1.5341,15.1625a.3249.3249,0,0,1-.1179-.3643l1.0157-3.12,7.4495,9.5505Zm22.9318,0-8.348,6.0619.0287-.0363,7.4215-9.51,1.015,3.12a.3259.3259,0,0,1-.1172.3651Z" fill="#0068a6"/></svg>