<svg id="icon_revgeocode" xmlns="http://www.w3.org/2000/svg" viewBox="0 0 60 60"><title>icon_revgeocode</title><rect width="60" height="60" fill="#fff" opacity="0"/><path d="M30,20.932a6.1059,6.1059,0,1,0,.0584,0C30.0389,20.9321,30.02,20.932,30,20.932Z" fill="none" stroke="#0068a6" stroke-miterlimit="10"/><path d="M30,.9358A29.0642,29.0642,0,1,0,59.0642,30,29.0642,29.0642,0,0,0,30,.9358ZM41.8146,32.6594C40.0271,36.8737,30,48.8917,30,48.8917S19.9729,36.8155,18.1854,32.6012a13.3568,13.3568,0,0,1-.8428-2.3542h0l-.1308-.5958h0a1.2892,1.2892,0,0,0-.1018-.61h0a14.5462,14.5462,0,0,1-.1889-1.9473,13.079,13.079,0,0,1,12.41-13.0789h1.7A13.0789,13.0789,0,0,1,41.8146,32.6739Z" fill="none" stroke="#0068a6" stroke-miterlimit="10"/></svg>