<!DOCTYPE svg PUBLIC "-//W3C//DTD SVG 1.1//EN" "http://www.w3.org/Graphics/SVG/1.1/DTD/svg11.dtd">
<svg xmlns="http://www.w3.org/2000/svg" xmlns:xlink="http://www.w3.org/1999/xlink" version="1.1" width="394" height="297" viewBox="-0.5 -0.5 394 297"><defs><filter id="dropShadow"><feGaussianBlur in="SourceAlpha" stdDeviation="1.7" result="blur"/><feOffset in="blur" dx="3" dy="3" result="offsetBlur"/><feFlood flood-color="#3D4574" flood-opacity="0.4" result="offsetColor"/><feComposite in="offsetColor" in2="offsetBlur" operator="in" result="offsetBlur"/><feBlend in="SourceGraphic" in2="offsetBlur"/></filter></defs><g filter="url(#dropShadow)"><!-- abaea7226b7548138f762a8a7af0da7c --><path d="M 271.03 95.07 C 269.91 95.07 269 95.98 269 97.1 L 269 192.9 C 269 194.02 269.91 194.93 271.03 194.93 L 331.45 194.93 L 331.45 190.87 L 273.06 190.87 L 273.06 115.67 L 368.94 115.67 L 368.94 190.87 L 356.38 190.87 L 356.38 194.93 L 370.97 194.93 C 372.09 194.93 373 194.02 373 192.9 L 373 97.1 C 373 95.98 372.09 95.07 370.97 95.07 Z M 273.06 99.13 L 368.94 99.13 L 368.94 111.61 L 273.06 111.61 Z M 277.28 103.4 L 277.28 107.46 L 281.36 107.46 L 281.36 103.4 Z M 285.63 103.4 L 285.63 107.46 L 289.82 107.46 L 289.82 103.4 Z M 293.83 103.4 L 293.83 107.46 L 298.11 107.46 L 298.11 103.4 Z M 292.84 129.81 L 289.97 132.69 L 308.65 151.25 L 289.76 169.83 L 292.6 172.73 L 312.95 152.72 C 313.76 151.92 313.76 150.62 312.97 149.82 Z M 316.77 161.71 L 316.77 165.77 L 348.1 165.77 L 348.1 161.71 Z" fill="#6c8ebf" stroke="none" pointer-events="none"/><path d="M 143 20 C 74.01 20 18 76.01 18 145 C 18 213.99 74.01 270 143 270 C 211.99 270 268 213.99 268 145 C 268 76.01 211.99 20 143 20 Z M 143 29.61 C 206.8 29.61 258.39 81.2 258.39 145 C 258.39 208.8 206.8 260.39 143 260.39 C 79.2 260.39 27.61 208.8 27.61 145 C 27.61 81.2 79.2 29.61 143 29.61 Z M 92.78 50.07 C 90.14 50.07 88 52.2 87.98 54.84 L 87.98 90.07 C 87.98 92.73 90.13 94.88 92.78 94.88 L 116.07 94.88 L 172.88 217.6 C 173.67 219.3 175.37 220.39 177.24 220.39 L 217.85 220.39 C 219.12 220.39 220.34 219.88 221.24 218.98 C 222.14 218.08 222.65 216.86 222.65 215.59 L 222.65 180.26 C 222.65 178.99 222.14 177.77 221.24 176.86 C 220.34 175.96 219.12 175.46 217.85 175.46 L 205.04 175.46 L 147.48 52.83 C 146.69 51.14 144.99 50.07 143.13 50.07 Z M 97.59 59.65 L 140.09 59.65 L 197.64 182.31 C 198.43 183.99 200.11 185.06 201.96 185.07 L 213.04 185.07 L 213.04 210.78 L 180.31 210.78 L 123.5 88.06 C 122.71 86.36 121.01 85.27 119.14 85.27 L 97.59 85.27 Z M 109.92 115.79 C 108.03 115.76 106.3 116.84 105.5 118.55 L 60.15 213.5 C 59.43 215 59.53 216.76 60.42 218.15 C 61.3 219.55 62.85 220.4 64.5 220.39 L 107.71 220.39 C 109.57 220.39 111.27 219.32 112.06 217.64 L 135.79 167.13 C 136.41 165.82 136.39 164.3 135.76 163 L 114.14 118.51 C 113.36 116.88 111.73 115.83 109.92 115.79 Z M 109.85 131.68 L 126.12 165.11 L 104.66 210.78 L 72.13 210.78 Z" fill="#f58534" stroke="none" pointer-events="none"/></g></svg>